<svg width="48" height="49" viewBox="0 0 48 49" fill="none" xmlns="http://www.w3.org/2000/svg">
<path fill-rule="evenodd" clip-rule="evenodd" d="M18.5 0.75C18.5 0.335786 18.8358 0 19.25 0H28.75C29.1642 0 29.5 0.335786 29.5 0.75V7.33988C29.5 7.66334 29.708 7.94883 30.0118 8.05995C31.9298 8.76154 33.6908 9.78923 35.2275 11.0759C35.4756 11.2836 35.8268 11.3209 36.107 11.1592L41.8181 7.86187C42.1768 7.65476 42.6355 7.77767 42.8426 8.13639L47.5926 16.3636C47.7997 16.7224 47.6768 17.181 47.3181 17.3882L41.6094 20.6841C41.3295 20.8457 41.1862 21.168 41.2415 21.4864C41.4114 22.4654 41.5 23.4724 41.5 24.5C41.5 25.5276 41.4114 26.5346 41.2415 27.5136C41.1862 27.832 41.3295 28.1544 41.6093 28.3159L47.3181 31.6119C47.6768 31.819 47.7997 32.2777 47.5926 32.6364L42.8426 40.8636C42.6355 41.2224 42.1768 41.3453 41.8181 41.1382L36.107 37.8408C35.8268 37.6791 35.4756 37.7164 35.2276 37.9241C33.6908 39.2108 31.9298 40.2385 30.0118 40.9401C29.708 41.0512 29.5 41.3367 29.5 41.6601V48.25C29.5 48.6642 29.1642 49 28.75 49H19.25C18.8358 49 18.5 48.6642 18.5 48.25V41.6601C18.5 41.3367 18.292 41.0512 17.9882 40.9401C16.0702 40.2385 14.3092 39.2108 12.7725 37.9241C12.5244 37.7164 12.1732 37.6791 11.893 37.8408L6.1819 41.1382C5.82318 41.3453 5.36449 41.2224 5.15738 40.8636L0.407381 32.6364C0.200275 32.2777 0.323181 31.819 0.681901 31.6119L6.39065 28.3159C6.67048 28.1544 6.81377 27.832 6.75851 27.5136C6.58858 26.5346 6.5 25.5276 6.5 24.5C6.5 23.4724 6.58858 22.4654 6.75851 21.4864C6.81377 21.168 6.67047 20.8457 6.39064 20.6841L0.681898 17.3882C0.323179 17.181 0.200272 16.7224 0.407379 16.3636L5.15738 8.1364C5.36449 7.77768 5.82318 7.65477 6.1819 7.86188L11.893 11.1592C12.1731 11.3209 12.5244 11.2836 12.7724 11.0759C14.3092 9.78924 16.0702 8.76154 17.9882 8.05995C18.292 7.94883 18.5 7.66333 18.5 7.33988V0.75ZM24 33C28.6944 33 32.5 29.1944 32.5 24.5C32.5 19.8056 28.6944 16 24 16C19.3056 16 15.5 19.8056 15.5 24.5C15.5 29.1944 19.3056 33 24 33Z" fill="#FFFDE3"/>
</svg>
